<?xml version="1.0" encoding="UTF-8"?>
<svg id="Layer_1" data-name="Layer 1" xmlns="http://www.w3.org/2000/svg" viewBox="0 0 1000 1000">
  <defs>
    <style>
      .cls-1 {
        fill: #fff;
      }

      .cls-2 {
        fill: #231f20;
      }
    </style>
  </defs>
  <rect class="cls-2" x="0" width="1000" height="1000"/>
  <path class="cls-1" d="M316.79,251H870.12c25.05,0,45.45-20.34,45.45-45.45V109.55c0-25.11-20.4-45.45-45.45-45.45H293.78c-25.11,0-45.45,20.34-45.45,45.45v81.29c0,25.11-20.34,45.45-45.45,45.45h-73c-25.11,0-45.45,20.39-45.45,45.45v96.07c0,25.11,20.34,45.45,45.45,45.45h73c25.11,0,45.45,20.34,45.45,45.45v65.56c0,25.11-20.34,45.45-45.45,45.45h-65.22c-25.11,0-45.45,20.39-45.45,45.45v265.02c0,25.11,20.34,45.45,45.45,45.45h96.01c25.11,0,45.45-20.34,45.45-45.45v-256.21c0-25.11,20.34-45.45,45.45-45.45h200.37c23.52,0,42.89,17.89,45.22,40.79v83.11c0,25.11,20.39,45.45,45.45,45.45h67.55c23.52,0,42.89,17.89,45.22,40.79v8.69c.17,1.53,.23,3.07,.23,4.66v69.31c0,1.59-.06,3.12-.23,4.66v4.49c0,25.11,20.39,45.45,45.45,45.45h96.29c23.58,0,43.06-18.01,45.22-41.07,.17-1.53,.23-3.07,.23-4.66v-96.01c0-1.48-.06-2.95-.23-4.37-2.16-23.06-21.59-41.07-45.22-41.07h-45.28c-.97-.06-1.88-.17-2.84-.34-.91,.17-1.88,.28-2.84,.34h-16.59c-23.52,0-42.89-17.9-45.22-40.79v-91.52c0-25.11-20.4-45.45-45.45-45.45h-40.5c-2.61,0-5.11-.23-7.61-.62-21.47-3.64-37.83-22.33-37.83-44.82v-78.45c0-25.11-20.4-45.45-45.45-45.45H316.79c-25.05,0-45.45-20.34-45.45-45.45v-59.71c0-25.11,20.4-45.45,45.45-45.45Z"/>
</svg>